<svg width="178" height="48" viewBox="0 0 178 48" fill="none" xmlns="http://www.w3.org/2000/svg">
<path d="M0.283032 37.7131C8.03922 45.6903 14.7456 48.965 20.4417 47.3365C23.6915 46.4075 26.0634 44.3673 30.7482 39.2539C31.7608 38.1488 31.7585 38.1513 32.1195 37.7622C36.2551 33.3055 38.7885 31.469 41.5575 31.469C43.0312 31.469 44.2001 31.5615 46.8251 31.8405L46.9151 31.8501C55.6107 32.774 59.9606 32.0744 66.289 27.1603C68.214 25.6655 69.9206 23.9983 71.6734 21.9799C72.7824 20.7028 76.225 16.3772 76.1032 16.5258C80.1579 11.5799 83.1925 9.66402 88.424 9.66402C90.5626 9.66402 92.6223 10.6002 95.256 12.593C95.8332 13.0297 96.4365 13.5138 97.1853 14.1355C97.5702 14.4551 98.9365 15.6041 99.1846 15.811C104.105 19.9161 107.361 21.8083 111.695 22.3152C117.327 22.9741 123.57 20.6251 130.981 14.6227C146.473 2.07561 161.397 12.4827 176.081 46.7688C176.298 47.2764 176.886 47.5117 177.394 47.2943C177.901 47.0769 178.137 46.4891 177.919 45.9814C162.793 10.6631 146.618 -0.616121 129.722 13.0685C122.696 18.7592 116.96 20.9175 111.927 20.3288C108.087 19.8796 105.108 18.1486 100.466 14.2753C100.222 14.0723 98.8537 12.9213 98.463 12.5969C97.6929 11.9574 97.0677 11.4558 96.4627 10.9981C93.5139 8.76684 91.0876 7.66402 88.424 7.66402C82.4857 7.66402 78.9542 9.89367 74.5565 15.2578C74.6543 15.1386 71.239 19.4298 70.1633 20.6686C68.4905 22.5949 66.8749 24.1732 65.0624 25.5806C59.2245 30.1138 55.3571 30.7358 47.1264 29.8613L47.0365 29.8517C44.3419 29.5653 43.1249 29.469 41.5575 29.469C38.0209 29.469 35.1669 31.5379 30.6535 36.4018C30.4427 36.629 30.2227 36.8676 29.9624 37.1511C29.7956 37.3329 29.6177 37.5271 29.2736 37.9029C24.857 42.7235 22.6442 44.6268 19.892 45.4136C15.0849 46.7878 9.01336 43.8232 1.71697 36.3189C1.33197 35.9229 0.698866 35.914 0.302895 36.299C-0.0930758 36.684 -0.101969 37.3171 0.283032 37.7131Z" fill="#5E81F4"/>
<path d="M87 14C90.866 14 94 10.866 94 7C94 3.13401 90.866 0 87 0C83.134 0 80 3.13401 80 7C80 10.866 83.134 14 87 14Z" fill="white"/>
<path d="M87 11C89.2091 11 91 9.20914 91 7C91 4.79086 89.2091 3 87 3C84.7909 3 83 4.79086 83 7C83 9.20914 84.7909 11 87 11Z" fill="#5E81F4"/>
</svg>
