<svg width="20" height="16" viewBox="0 0 20 16" fill="none" xmlns="http://www.w3.org/2000/svg">
<path d="M7.5625 0C7.1901 0 6.86784 0.136068 6.5957 0.408203C6.32357 0.680339 6.1875 1.0026 6.1875 1.375V2.75H0V15.125H19.25V2.75H13.0625V1.375C13.0625 1.0026 12.9264 0.680339 12.6543 0.408203C12.3822 0.136068 12.0599 0 11.6875 0H7.5625ZM7.5625 1.375H11.6875V2.75H7.5625V1.375ZM1.375 4.125H17.875V7.5625H15.125V6.875H12.375V7.5625H6.875V6.875H4.125V7.5625H1.375V4.125ZM1.375 8.9375H4.125V9.625H6.875V8.9375H12.375V9.625H15.125V8.9375H17.875V13.75H1.375V8.9375Z" fill="#8181A5"/>
</svg>
