<svg width="16" height="16" viewBox="0 0 16 16" fill="none" xmlns="http://www.w3.org/2000/svg">
<path d="M2.75 0V0.6875H0V15.8125H15.125V0.6875H12.375V0H11V0.6875H4.125V0H2.75ZM1.375 2.0625H2.75V2.75H4.125V2.0625H11V2.75H12.375V2.0625H13.75V3.4375H1.375V2.0625ZM1.375 4.8125H13.75V14.4375H1.375V4.8125ZM5.5 6.1875V7.5625H6.875V6.1875H5.5ZM8.25 6.1875V7.5625H9.625V6.1875H8.25ZM11 6.1875V7.5625H12.375V6.1875H11ZM2.75 8.9375V10.3125H4.125V8.9375H2.75ZM5.5 8.9375V10.3125H6.875V8.9375H5.5ZM8.25 8.9375V10.3125H9.625V8.9375H8.25ZM11 8.9375V10.3125H12.375V8.9375H11ZM2.75 11.6875V13.0625H12.375V11.6875H2.75Z" fill="#8181A5"/>
</svg>
