<svg width="18" height="18" viewBox="0 0 18 18" fill="none" xmlns="http://www.w3.org/2000/svg">
<path d="M8.9375 0C7.31901 0 5.8151 0.408203 4.42578 1.22461C3.07943 2.01237 2.01237 3.07943 1.22461 4.42578C0.408203 5.8151 0 7.31901 0 8.9375C0 10.556 0.408203 12.0599 1.22461 13.4492C2.01237 14.7956 3.07943 15.8626 4.42578 16.6504C5.8151 17.4668 7.31901 17.875 8.9375 17.875C10.556 17.875 12.0599 17.4668 13.4492 16.6504C14.7956 15.8626 15.8626 14.7956 16.6504 13.4492C17.4668 12.0599 17.875 10.556 17.875 8.9375C17.875 7.31901 17.4668 5.8151 16.6504 4.42578C15.8626 3.07943 14.7956 2.01237 13.4492 1.22461C12.0599 0.408203 10.556 0 8.9375 0ZM8.9375 0.6875C10.4271 0.6875 11.8164 1.0599 13.1055 1.80469C14.3516 2.53516 15.3398 3.52344 16.0703 4.76953C16.8151 6.05859 17.1875 7.44792 17.1875 8.9375C17.1875 10.4271 16.8151 11.8164 16.0703 13.1055C15.3398 14.3516 14.3516 15.3398 13.1055 16.0703C11.8164 16.8151 10.4271 17.1875 8.9375 17.1875C7.44792 17.1875 6.05859 16.8151 4.76953 16.0703C3.52344 15.3398 2.53516 14.3516 1.80469 13.1055C1.0599 11.8164 0.6875 10.4271 0.6875 8.9375C0.6875 7.44792 1.0599 6.05859 1.80469 4.76953C2.53516 3.52344 3.52344 2.53516 4.76953 1.80469C6.05859 1.0599 7.44792 0.6875 8.9375 0.6875ZM8.9375 2.0625C7.69141 2.0625 6.53841 2.3776 5.47852 3.00781C4.43294 3.60938 3.60938 4.43294 3.00781 5.47852C2.3776 6.53841 2.0625 7.69141 2.0625 8.9375C2.0625 10.1836 2.3776 11.3366 3.00781 12.3965C3.60938 13.4421 4.43294 14.2656 5.47852 14.8672C6.53841 15.4974 7.69141 15.8125 8.9375 15.8125C10.1836 15.8125 11.3366 15.4974 12.3965 14.8672C13.4421 14.2656 14.2656 13.4421 14.8672 12.3965C15.4974 11.3366 15.8125 10.1836 15.8125 8.9375C15.8125 7.69141 15.4974 6.53841 14.8672 5.47852C14.2656 4.43294 13.4421 3.60938 12.3965 3.00781C11.3366 2.3776 10.1836 2.0625 8.9375 2.0625ZM8.9375 3.4375C9.9401 3.4375 10.8568 3.68815 11.6875 4.18945C12.5326 4.67643 13.1986 5.34245 13.6855 6.1875C14.1868 7.01823 14.4375 7.9349 14.4375 8.9375C14.4375 9.9401 14.1868 10.8639 13.6855 11.709C13.1986 12.5397 12.5326 13.2057 11.6875 13.707C10.8568 14.194 9.9401 14.4375 8.9375 14.4375C7.9349 14.4375 7.01107 14.194 6.16602 13.707C5.33529 13.2057 4.66927 12.5397 4.16797 11.709C3.68099 10.8639 3.4375 9.9401 3.4375 8.9375C3.4375 7.9349 3.68099 7.01823 4.16797 6.1875C4.66927 5.34245 5.33529 4.67643 6.16602 4.18945C7.01107 3.68815 7.9349 3.4375 8.9375 3.4375ZM8.9375 4.8125C8.19271 4.8125 7.50521 4.9987 6.875 5.37109C6.24479 5.74349 5.74349 6.24479 5.37109 6.875C4.9987 7.50521 4.8125 8.19271 4.8125 8.9375C4.8125 9.68229 4.9987 10.3698 5.37109 11C5.74349 11.6302 6.24479 12.1315 6.875 12.5039C7.50521 12.8763 8.19271 13.0625 8.9375 13.0625C9.68229 13.0625 10.3698 12.8763 11 12.5039C11.6302 12.1315 12.1315 11.6302 12.5039 11C12.8763 10.3698 13.0625 9.68229 13.0625 8.9375C13.0625 8.19271 12.8763 7.50521 12.5039 6.875C12.1315 6.24479 11.6302 5.74349 11 5.37109C10.3698 4.9987 9.68229 4.8125 8.9375 4.8125ZM8.9375 6.1875C9.4388 6.1875 9.89714 6.30924 10.3125 6.55273C10.7422 6.79622 11.0788 7.13281 11.3223 7.5625C11.5658 7.97786 11.6875 8.4362 11.6875 8.9375C11.6875 9.4388 11.5658 9.9043 11.3223 10.334C11.0788 10.7493 10.7422 11.0788 10.3125 11.3223C9.89714 11.5658 9.4388 11.6875 8.9375 11.6875C8.4362 11.6875 7.9707 11.5658 7.54102 11.3223C7.12565 11.0788 6.79622 10.7493 6.55273 10.334C6.30924 9.9043 6.1875 9.4388 6.1875 8.9375C6.1875 8.4362 6.30924 7.97786 6.55273 7.5625C6.79622 7.13281 7.12565 6.79622 7.54102 6.55273C7.9707 6.30924 8.4362 6.1875 8.9375 6.1875ZM8.9375 7.5625C8.55078 7.5625 8.22135 7.69857 7.94922 7.9707C7.69141 8.22852 7.5625 8.55078 7.5625 8.9375C7.5625 9.32422 7.69141 9.65365 7.94922 9.92578C8.22135 10.1836 8.55078 10.3125 8.9375 10.3125C9.32422 10.3125 9.64648 10.1836 9.9043 9.92578C10.1764 9.65365 10.3125 9.32422 10.3125 8.9375C10.3125 8.55078 10.1764 8.22852 9.9043 7.9707C9.64648 7.69857 9.32422 7.5625 8.9375 7.5625Z" fill="#8181A5"/>
</svg>
