<svg width="16" height="19" viewBox="0 0 16 19" fill="none" xmlns="http://www.w3.org/2000/svg">
<path d="M7.5625 0C7.14714 0 6.7819 0.136068 6.4668 0.408203C6.16602 0.651693 5.93685 0.973958 5.7793 1.375H0V18.5625H15.125V1.375H9.3457C9.18815 0.973958 8.95898 0.651693 8.6582 0.408203C8.3431 0.136068 7.97786 0 7.5625 0ZM7.5625 1.375C7.7487 1.375 7.90625 1.44661 8.03516 1.58984C8.17839 1.71875 8.25 1.8763 8.25 2.0625V2.75H10.3125V4.125H4.8125V2.75H6.875V2.0625C6.875 1.8763 6.93945 1.71875 7.06836 1.58984C7.21159 1.44661 7.3763 1.375 7.5625 1.375ZM1.375 2.75H3.4375V5.5H11.6875V2.75H13.75V17.1875H1.375V2.75ZM11.1934 7.75586L6.875 12.0742L4.61914 9.81836L3.63086 10.8066L6.38086 13.5566L6.875 14.0293L7.36914 13.5566L12.1816 8.74414L11.1934 7.75586Z" fill="#8181A5"/>
</svg>
