<svg width="17" height="14" viewBox="0 0 17 14" fill="none" xmlns="http://www.w3.org/2000/svg">
<path d="M8.25 0C6.76042 0 5.37109 0.379557 4.08203 1.13867C2.83594 1.85482 1.85482 2.83594 1.13867 4.08203C0.379557 5.37109 0 6.76042 0 8.25C0 9.22396 0.164714 10.1693 0.494141 11.0859C0.823568 11.9596 1.28906 12.7617 1.89062 13.4922L2.08398 13.75H14.416L14.6094 13.4922C15.2109 12.7617 15.6764 11.9596 16.0059 11.0859C16.3353 10.1693 16.5 9.22396 16.5 8.25C16.5 6.76042 16.1276 5.37109 15.3828 4.08203C14.6523 2.83594 13.6641 1.85482 12.418 1.13867C11.1289 0.379557 9.73958 0 8.25 0ZM8.25 1.375C9.49609 1.375 10.6562 1.6901 11.7305 2.32031C12.7617 2.92188 13.5781 3.73828 14.1797 4.76953C14.8099 5.84375 15.125 7.00391 15.125 8.25C15.125 9.00911 14.9961 9.74674 14.7383 10.4629C14.4948 11.1504 14.151 11.7878 13.707 12.375H2.79297C2.34896 11.7878 2.00521 11.1504 1.76172 10.4629C1.50391 9.74674 1.375 9.00911 1.375 8.25C1.375 7.00391 1.6901 5.84375 2.32031 4.76953C2.92188 3.73828 3.73828 2.92188 4.76953 2.32031C5.84375 1.6901 7.00391 1.375 8.25 1.375ZM8.25 2.0625C8.0638 2.0625 7.89909 2.13411 7.75586 2.27734C7.62695 2.40625 7.5625 2.5638 7.5625 2.75C7.5625 2.9362 7.62695 3.10091 7.75586 3.24414C7.89909 3.37305 8.0638 3.4375 8.25 3.4375C8.4362 3.4375 8.59375 3.37305 8.72266 3.24414C8.86589 3.10091 8.9375 2.9362 8.9375 2.75C8.9375 2.5638 8.86589 2.40625 8.72266 2.27734C8.59375 2.13411 8.4362 2.0625 8.25 2.0625ZM5.5 2.79297C5.3138 2.79297 5.14909 2.86458 5.00586 3.00781C4.87695 3.13672 4.8125 3.29427 4.8125 3.48047C4.8125 3.66667 4.87695 3.83138 5.00586 3.97461C5.14909 4.10352 5.3138 4.16797 5.5 4.16797C5.6862 4.16797 5.84375 4.10352 5.97266 3.97461C6.11589 3.83138 6.1875 3.66667 6.1875 3.48047C6.1875 3.29427 6.11589 3.13672 5.97266 3.00781C5.84375 2.86458 5.6862 2.79297 5.5 2.79297ZM11 2.79297C10.8138 2.79297 10.6491 2.86458 10.5059 3.00781C10.377 3.13672 10.3125 3.29427 10.3125 3.48047C10.3125 3.66667 10.377 3.83138 10.5059 3.97461C10.6491 4.10352 10.8138 4.16797 11 4.16797C11.1862 4.16797 11.3438 4.10352 11.4727 3.97461C11.6159 3.83138 11.6875 3.66667 11.6875 3.48047C11.6875 3.29427 11.6159 3.13672 11.4727 3.00781C11.3438 2.86458 11.1862 2.79297 11 2.79297ZM3.48047 4.8125C3.29427 4.8125 3.12956 4.88411 2.98633 5.02734C2.85742 5.15625 2.79297 5.3138 2.79297 5.5C2.79297 5.6862 2.85742 5.85091 2.98633 5.99414C3.12956 6.12305 3.29427 6.1875 3.48047 6.1875C3.66667 6.1875 3.82422 6.12305 3.95312 5.99414C4.09635 5.85091 4.16797 5.6862 4.16797 5.5C4.16797 5.3138 4.09635 5.15625 3.95312 5.02734C3.82422 4.88411 3.66667 4.8125 3.48047 4.8125ZM12.8262 4.83398L8.9375 7.06836C8.72266 6.93945 8.49349 6.875 8.25 6.875C7.86328 6.875 7.53385 7.01107 7.26172 7.2832C7.00391 7.54102 6.875 7.86328 6.875 8.25C6.875 8.63672 7.00391 8.96615 7.26172 9.23828C7.53385 9.49609 7.85612 9.625 8.22852 9.625C8.61523 9.625 8.94466 9.49609 9.2168 9.23828C9.48893 8.96615 9.625 8.64388 9.625 8.27148V8.25L13.5137 6.03711L12.8262 4.83398ZM2.75 7.5625C2.5638 7.5625 2.39909 7.63411 2.25586 7.77734C2.12695 7.90625 2.0625 8.0638 2.0625 8.25C2.0625 8.4362 2.12695 8.60091 2.25586 8.74414C2.39909 8.87305 2.5638 8.9375 2.75 8.9375C2.9362 8.9375 3.09375 8.87305 3.22266 8.74414C3.36589 8.60091 3.4375 8.4362 3.4375 8.25C3.4375 8.0638 3.36589 7.90625 3.22266 7.77734C3.09375 7.63411 2.9362 7.5625 2.75 7.5625ZM13.75 7.5625C13.5638 7.5625 13.3991 7.63411 13.2559 7.77734C13.127 7.90625 13.0625 8.0638 13.0625 8.25C13.0625 8.4362 13.127 8.60091 13.2559 8.74414C13.3991 8.87305 13.5638 8.9375 13.75 8.9375C13.9362 8.9375 14.0938 8.87305 14.2227 8.74414C14.3659 8.60091 14.4375 8.4362 14.4375 8.25C14.4375 8.0638 14.3659 7.90625 14.2227 7.77734C14.0938 7.63411 13.9362 7.5625 13.75 7.5625ZM3.48047 10.3125C3.29427 10.3125 3.12956 10.3841 2.98633 10.5273C2.85742 10.6562 2.79297 10.8138 2.79297 11C2.79297 11.1862 2.85742 11.3509 2.98633 11.4941C3.12956 11.623 3.29427 11.6875 3.48047 11.6875C3.66667 11.6875 3.82422 11.623 3.95312 11.4941C4.09635 11.3509 4.16797 11.1862 4.16797 11C4.16797 10.8138 4.09635 10.6562 3.95312 10.5273C3.82422 10.3841 3.66667 10.3125 3.48047 10.3125ZM13.0195 10.3125C12.8333 10.3125 12.6686 10.3841 12.5254 10.5273C12.3965 10.6562 12.332 10.8138 12.332 11C12.332 11.1862 12.3965 11.3509 12.5254 11.4941C12.6686 11.623 12.8333 11.6875 13.0195 11.6875C13.2057 11.6875 13.3633 11.623 13.4922 11.4941C13.6354 11.3509 13.707 11.1862 13.707 11C13.707 10.8138 13.6354 10.6562 13.4922 10.5273C13.3633 10.3841 13.2057 10.3125 13.0195 10.3125Z" fill="#5E81F4"/>
</svg>
