<svg width="14" height="18" viewBox="0 0 14 18" fill="none" xmlns="http://www.w3.org/2000/svg">
<path d="M0 0V17.875H13.75V0H0ZM1.375 1.375H12.375V16.5H1.375V1.375ZM2.75 2.75V6.875H11V2.75H2.75ZM4.125 4.125H9.625V5.5H4.125V4.125ZM3.4375 8.25V9.625H4.8125V8.25H3.4375ZM6.1875 8.25V9.625H7.5625V8.25H6.1875ZM8.9375 8.25V9.625H10.3125V8.25H8.9375ZM3.4375 11V12.375H4.8125V11H3.4375ZM6.1875 11V12.375H7.5625V11H6.1875ZM8.9375 11V12.375H10.3125V11H8.9375ZM3.4375 13.75V15.125H4.8125V13.75H3.4375ZM6.1875 13.75V15.125H7.5625V13.75H6.1875ZM8.9375 13.75V15.125H10.3125V13.75H8.9375Z" fill="#8181A5"/>
</svg>
