<svg width="30" height="30" viewBox="0 0 30 30" fill="none" xmlns="http://www.w3.org/2000/svg">
<g clip-path="url(#clip0_14068_102)">
<path d="M30 15C30 12.125 29.875 9.5 29.4375 8C28.9375 6.25 28.375 4.625 26.8125 3.1875C24.9375 1.5 23.25 0.9375 20.8125 0.4375C19 0.0625 16.875 0 15.5625 0H14.375C13.0625 0 10.9375 0.0625 9.125 0.4375C6.6875 0.9375 5 1.5 3.125 3.1875C1.625 4.625 1.125 6.25 0.5625 8C0.125 9.5 0 12.125 0 15C0 17.875 0.125 20.5 0.5625 22C1.0625 23.75 1.625 25.375 3.1875 26.8125C5.0625 28.5 6.75 29.0625 9.1875 29.5625C11.3125 30 13.8125 30 15 30C16.1875 30.0625 18.6875 30 20.8125 29.5625C23.25 29.0625 24.9375 28.5 26.8125 26.8125C28.375 25.375 28.9375 23.75 29.4375 22C29.875 20.5 30 17.875 30 15Z" fill="url(#paint0_linear_14068_102)"/>
<path d="M16.3749 6.125C18.1249 6.125 21.5624 6.6875 21.5624 8.8125C21.5624 9.6875 20.9374 10.4375 20.0624 10.4375C19.0624 10.4375 18.3749 9.5625 16.3749 9.5625C13.3749 9.5625 11.8124 12.125 11.8124 15.0625C11.8124 17.9375 13.3749 20.4375 16.3749 20.4375C18.4374 20.4375 19.2499 19.4375 20.2499 19.4375C21.3124 19.4375 21.8749 20.5 21.8749 21.0625C21.8749 23.375 18.1874 23.9375 16.4374 23.9375C11.4999 23.9375 8.12494 20.0625 8.12494 15C7.99994 10 11.3749 6.125 16.3749 6.125Z" fill="white"/>
</g>
<defs>
<linearGradient id="paint0_linear_14068_102" x1="15" y1="0" x2="15" y2="30.0206" gradientUnits="userSpaceOnUse">
<stop stop-color="#5E81F4"/>
<stop offset="1" stop-color="#5E81F4"/>
</linearGradient>
<clipPath id="clip0_14068_102">
<rect width="30" height="30" fill="white"/>
</clipPath>
</defs>
</svg>
