<svg width="18" height="19" viewBox="0 0 18 19" fill="none" xmlns="http://www.w3.org/2000/svg">
<path d="M6.875 0C6.0013 0 5.19206 0.214844 4.44727 0.644531C3.7168 1.07422 3.13672 1.66146 2.70703 2.40625C2.27734 3.13672 2.0625 3.9388 2.0625 4.8125C2.0625 5.64323 2.2487 6.40951 2.62109 7.11133C3.00781 7.79883 3.52344 8.36458 4.16797 8.80859C3.35156 9.16667 2.62826 9.66081 1.99805 10.291C1.36784 10.9212 0.880859 11.6445 0.537109 12.4609C0.179036 13.306 0 14.194 0 15.125H1.375C1.375 14.1367 1.61849 13.2201 2.10547 12.375C2.60677 11.5299 3.27995 10.8639 4.125 10.377C4.97005 9.87565 5.88672 9.625 6.875 9.625C7.70573 9.625 8.48633 9.8112 9.2168 10.1836V10.1621C9.3457 9.88997 9.45312 9.68945 9.53906 9.56055C9.66797 9.3457 9.8112 9.15951 9.96875 9.00195L9.56055 8.83008C10.2194 8.38607 10.735 7.81315 11.1074 7.11133C11.4941 6.40951 11.6875 5.64323 11.6875 4.8125C11.6875 3.9388 11.4727 3.13672 11.043 2.40625C10.6133 1.66146 10.026 1.07422 9.28125 0.644531C8.55078 0.214844 7.7487 0 6.875 0ZM6.875 1.375C7.50521 1.375 8.07812 1.53255 8.59375 1.84766C9.1237 2.14844 9.53906 2.5638 9.83984 3.09375C10.1549 3.60938 10.3125 4.18229 10.3125 4.8125C10.3125 5.44271 10.1549 6.02279 9.83984 6.55273C9.53906 7.06836 9.1237 7.48372 8.59375 7.79883C8.07812 8.09961 7.50521 8.25 6.875 8.25C6.24479 8.25 5.66471 8.09961 5.13477 7.79883C4.61914 7.48372 4.20378 7.06836 3.88867 6.55273C3.58789 6.02279 3.4375 5.44271 3.4375 4.8125C3.4375 4.18229 3.58789 3.60938 3.88867 3.09375C4.20378 2.5638 4.61914 2.14844 5.13477 1.84766C5.66471 1.53255 6.24479 1.375 6.875 1.375ZM13.0625 8.9375C12.5612 8.9375 12.1029 9.06641 11.6875 9.32422C11.2721 9.56771 10.9355 9.89714 10.6777 10.3125C10.4342 10.7279 10.3125 11.1862 10.3125 11.6875V13.0625H8.25V18.5625H17.875V13.0625H15.8125V11.6875C15.8125 11.1862 15.6836 10.7279 15.4258 10.3125C15.1823 9.89714 14.8529 9.56771 14.4375 9.32422C14.0221 9.06641 13.5638 8.9375 13.0625 8.9375ZM13.0625 10.3125C13.4349 10.3125 13.7572 10.4486 14.0293 10.7207C14.3014 10.9928 14.4375 11.3151 14.4375 11.6875V13.0625H11.6875V11.6875C11.6875 11.3151 11.8236 10.9928 12.0957 10.7207C12.3678 10.4486 12.6901 10.3125 13.0625 10.3125ZM9.625 14.4375H16.5V17.1875H9.625V14.4375Z" fill="#8181A5"/>
</svg>
