<svg width="11" height="17" viewBox="0 0 11 17" fill="none" xmlns="http://www.w3.org/2000/svg">
<path d="M5.5 0C4.52604 0 3.61654 0.214844 2.77148 0.644531C1.92643 1.0599 1.26042 1.63281 0.773438 2.36328C0.257812 3.10807 0 3.92448 0 4.8125V6.875H4.125V4.8125C4.125 4.66927 4.22526 4.5332 4.42578 4.4043C4.71224 4.2181 5.07031 4.125 5.5 4.125C5.94401 4.125 6.30208 4.2181 6.57422 4.4043C6.77474 4.5332 6.875 4.66927 6.875 4.8125C6.875 4.9987 6.83919 5.17057 6.76758 5.32812C6.71029 5.48568 6.61003 5.65039 6.4668 5.82227C6.32357 5.99414 6.01562 6.2806 5.54297 6.68164L5.39258 6.81055C4.80534 7.31185 4.36849 7.77018 4.08203 8.18555C3.65234 8.8444 3.4375 9.55339 3.4375 10.3125V11H7.5625V10.3125C7.5625 10.1979 7.58398 10.0905 7.62695 9.99023C7.68424 9.88997 7.77018 9.78255 7.88477 9.66797C8.01367 9.53906 8.25716 9.32422 8.61523 9.02344L9.04492 8.67969C9.61784 8.20703 10.0547 7.70573 10.3555 7.17578C10.7852 6.47396 11 5.6862 11 4.8125C11 3.9388 10.7422 3.1224 10.2266 2.36328C9.73958 1.64714 9.07357 1.07422 8.22852 0.644531C7.39779 0.214844 6.48828 0 5.5 0ZM5.5 1.375C6.25911 1.375 6.96094 1.53971 7.60547 1.86914C8.22135 2.16992 8.70833 2.58529 9.06641 3.11523C9.4388 3.64518 9.625 4.21094 9.625 4.8125C9.625 5.48568 9.48177 6.05143 9.19531 6.50977C8.99479 6.83919 8.64388 7.21159 8.14258 7.62695L7.86328 7.86328C7.43359 8.22135 7.11849 8.50065 6.91797 8.70117C6.6888 8.94466 6.5026 9.2526 6.35938 9.625H5.02734C5.1276 9.29557 5.27799 8.99479 5.47852 8.72266C5.69336 8.4362 5.96549 8.14974 6.29492 7.86328L6.40234 7.77734C6.94661 7.31901 7.33333 6.94661 7.5625 6.66016C8.02083 6.08724 8.25 5.47135 8.25 4.8125C8.25 4.4974 8.16406 4.21094 7.99219 3.95312C7.83464 3.68099 7.61979 3.45182 7.34766 3.26562C6.83203 2.92188 6.21615 2.75 5.5 2.75C4.78385 2.75 4.16797 2.92188 3.65234 3.26562C3.38021 3.45182 3.1582 3.68099 2.98633 3.95312C2.82878 4.21094 2.75 4.4974 2.75 4.8125V5.5H1.375V4.8125C1.375 4.19661 1.55404 3.63086 1.91211 3.11523C2.28451 2.58529 2.78581 2.16276 3.41602 1.84766C4.04622 1.53255 4.74089 1.375 5.5 1.375ZM3.4375 12.375V16.5H7.5625V12.375H3.4375ZM4.8125 13.75H6.1875V15.125H4.8125V13.75Z" fill="#8181A5"/>
</svg>
