<svg width="17" height="17" viewBox="0 0 17 17" fill="none" xmlns="http://www.w3.org/2000/svg">
<path d="M16.5 0L15.3828 0.859375L12.2031 3.35156L8.09961 2.66406L3.95312 5.41406L0.816406 4.79102L0 4.61914V16.457H16.5V0ZM15.125 2.81445V6.50977L12.2246 8.80859L8.14258 7.45508L7.86328 7.62695L4.03906 10.1836L1.375 9.10938V6.29492L3.99609 6.81055L4.27539 6.875L8.40039 4.125L12.2676 4.76953L12.5684 4.8125L12.8047 4.61914L15.125 2.81445ZM15.125 8.27148V15.082H1.375V10.6133L4.21094 11.7305L8.37891 8.95898L12.1602 10.2266L12.5039 10.3555L12.8047 10.1191L15.125 8.27148Z" fill="#8181A5"/>
</svg>
