<svg width="14" height="12" viewBox="0 0 14 12" fill="none" xmlns="http://www.w3.org/2000/svg">
<path d="M0.5625 0C0.410156 0 0.275391 0.0585938 0.158203 0.175781C0.0527344 0.28125 0 0.410156 0 0.5625C0 0.714844 0.0527344 0.849609 0.158203 0.966797C0.275391 1.07227 0.410156 1.125 0.5625 1.125H1.81055L3.28711 7.03125C3.3457 7.27734 3.47461 7.48242 3.67383 7.64648C3.88477 7.79883 4.11914 7.875 4.37695 7.875H11.3906C11.6484 7.875 11.8711 7.79883 12.0586 7.64648C12.2578 7.49414 12.3926 7.29492 12.4629 7.04883L13.9219 1.6875H12.7441L11.3906 6.75H4.37695L2.90039 0.84375C2.8418 0.597656 2.70703 0.398437 2.49609 0.246094C2.29688 0.0820312 2.06836 0 1.81055 0H0.5625ZM10.6875 7.875C10.2305 7.875 9.83203 8.04492 9.49219 8.38477C9.16406 8.71289 9 9.10547 9 9.5625C9 10.0195 9.16406 10.418 9.49219 10.7578C9.83203 11.0859 10.2305 11.25 10.6875 11.25C11.1445 11.25 11.5371 11.0859 11.8652 10.7578C12.2051 10.418 12.375 10.0195 12.375 9.5625C12.375 9.10547 12.2051 8.71289 11.8652 8.38477C11.5371 8.04492 11.1445 7.875 10.6875 7.875ZM5.625 7.875C5.16797 7.875 4.76953 8.04492 4.42969 8.38477C4.10156 8.71289 3.9375 9.10547 3.9375 9.5625C3.9375 10.0195 4.10156 10.418 4.42969 10.7578C4.76953 11.0859 5.16797 11.25 5.625 11.25C6.08203 11.25 6.47461 11.0859 6.80273 10.7578C7.14258 10.418 7.3125 10.0195 7.3125 9.5625C7.3125 9.10547 7.14258 8.71289 6.80273 8.38477C6.47461 8.04492 6.08203 7.875 5.625 7.875ZM7.3125 0V1.6875H5.625V2.8125H7.3125V4.5H8.4375V2.8125H10.125V1.6875H8.4375V0H7.3125ZM5.625 9C5.78906 9 5.92383 9.05273 6.0293 9.1582C6.13477 9.26367 6.1875 9.39844 6.1875 9.5625C6.1875 9.71484 6.13477 9.84961 6.0293 9.9668C5.92383 10.0723 5.78906 10.125 5.625 10.125C5.47266 10.125 5.33789 10.0723 5.2207 9.9668C5.11523 9.84961 5.0625 9.71484 5.0625 9.5625C5.0625 9.39844 5.11523 9.26367 5.2207 9.1582C5.33789 9.05273 5.47266 9 5.625 9ZM10.6875 9C10.8516 9 10.9863 9.05273 11.0918 9.1582C11.1973 9.26367 11.25 9.39844 11.25 9.5625C11.25 9.71484 11.1973 9.84961 11.0918 9.9668C10.9863 10.0723 10.8516 10.125 10.6875 10.125C10.5352 10.125 10.4004 10.0723 10.2832 9.9668C10.1777 9.84961 10.125 9.71484 10.125 9.5625C10.125 9.39844 10.1777 9.26367 10.2832 9.1582C10.4004 9.05273 10.5352 9 10.6875 9Z" fill="#5E81F4"/>
</svg>
