<svg width="15" height="15" viewBox="0 0 15 15" fill="none" xmlns="http://www.w3.org/2000/svg">
<path d="M5.625 0C4.91016 0 4.24805 0.175781 3.63867 0.527344C3.04102 0.878906 2.56641 1.35938 2.21484 1.96875C1.86328 2.56641 1.6875 3.22266 1.6875 3.9375C1.6875 4.60547 1.83984 5.22656 2.14453 5.80078C2.46094 6.375 2.88867 6.84375 3.42773 7.20703C2.75977 7.5 2.16211 7.9043 1.63477 8.41992C1.11914 8.93555 0.720703 9.52734 0.439453 10.1953C0.146484 10.8867 0 11.6133 0 12.375H1.125C1.125 11.5547 1.32422 10.8047 1.72266 10.125C2.13281 9.43359 2.67773 8.88867 3.35742 8.49023C4.04883 8.08008 4.80469 7.875 5.625 7.875C6.21094 7.875 6.77344 7.99219 7.3125 8.22656C7.82812 8.4375 8.29688 8.74219 8.71875 9.14062L6.06445 11.7949L5.64258 13.957L5.4668 14.7832L6.29297 14.6074L8.45508 14.1855L14.1328 8.50781C14.4609 8.17969 14.625 7.78125 14.625 7.3125C14.625 6.84375 14.4609 6.44531 14.1328 6.11719C13.8047 5.78906 13.4062 5.625 12.9375 5.625C12.4805 5.625 12.0879 5.7832 11.7598 6.09961L9.52734 8.33203C9.02344 7.85156 8.45508 7.47656 7.82227 7.20703C8.36133 6.84375 8.7832 6.375 9.08789 5.80078C9.4043 5.22656 9.5625 4.60547 9.5625 3.9375C9.5625 3.22266 9.38672 2.56641 9.03516 1.96875C8.68359 1.35938 8.20312 0.878906 7.59375 0.527344C6.99609 0.175781 6.33984 0 5.625 0ZM5.625 1.125C6.14062 1.125 6.60938 1.25391 7.03125 1.51172C7.46484 1.75781 7.80469 2.09766 8.05078 2.53125C8.30859 2.95312 8.4375 3.42187 8.4375 3.9375C8.4375 4.45313 8.30859 4.92773 8.05078 5.36133C7.80469 5.7832 7.46484 6.12305 7.03125 6.38086C6.60938 6.62695 6.14062 6.75 5.625 6.75C5.10938 6.75 4.63477 6.62695 4.20117 6.38086C3.7793 6.12305 3.43945 5.7832 3.18164 5.36133C2.93555 4.92773 2.8125 4.45313 2.8125 3.9375C2.8125 3.42187 2.93555 2.95312 3.18164 2.53125C3.43945 2.09766 3.7793 1.75781 4.20117 1.51172C4.63477 1.25391 5.10938 1.125 5.625 1.125ZM12.9375 6.75C13.1016 6.75 13.2363 6.80859 13.3418 6.92578C13.459 7.03125 13.5176 7.16016 13.5176 7.3125C13.5176 7.45312 13.459 7.58203 13.3418 7.69922L7.89258 13.1484L6.89062 13.3594L7.10156 12.3574L12.5508 6.9082C12.6562 6.80273 12.7852 6.75 12.9375 6.75Z" fill="#5E81F4"/>
</svg>
