<svg width="12" height="15" viewBox="0 0 12 15" fill="none" xmlns="http://www.w3.org/2000/svg">
<path d="M5.625 0C5.30859 0 5.03906 0.111328 4.81641 0.333984C4.60547 0.544922 4.5 0.808594 4.5 1.125L4.51758 1.26562C3.87305 1.42969 3.29297 1.72266 2.77734 2.14453C2.26172 2.56641 1.85742 3.08203 1.56445 3.69141C1.27148 4.28906 1.125 4.93359 1.125 5.625V10.6875C1.125 10.8516 1.07227 10.9863 0.966797 11.0918C0.861328 11.1973 0.726562 11.25 0.5625 11.25H0V12.375H4.04297C3.97266 12.5742 3.9375 12.7617 3.9375 12.9375C3.9375 13.3945 4.10156 13.7871 4.42969 14.1152C4.76953 14.4551 5.16797 14.625 5.625 14.625C6.08203 14.625 6.47461 14.4551 6.80273 14.1152C7.14258 13.7871 7.3125 13.3945 7.3125 12.9375C7.3125 12.7617 7.27734 12.5742 7.20703 12.375H11.25V11.25H10.6875C10.5234 11.25 10.3887 11.1973 10.2832 11.0918C10.1777 10.9863 10.125 10.8516 10.125 10.6875V5.7832C10.125 5.0918 9.97852 4.43555 9.68555 3.81445C9.4043 3.18164 9.00586 2.64258 8.49023 2.19727C7.97461 1.75195 7.38867 1.44141 6.73242 1.26562L6.75 1.125C6.75 0.808594 6.63867 0.544922 6.41602 0.333984C6.20508 0.111328 5.94141 0 5.625 0ZM5.37891 2.25C5.41406 2.25 5.4668 2.25 5.53711 2.25H5.73047C6.32812 2.27344 6.87891 2.44922 7.38281 2.77734C7.88672 3.09375 8.2793 3.52148 8.56055 4.06055C8.85352 4.59961 9 5.17383 9 5.7832V10.6875C9 10.8633 9.03516 11.0508 9.10547 11.25H2.14453C2.21484 11.0508 2.25 10.8633 2.25 10.6875V5.625C2.25 5.03906 2.38477 4.5 2.6543 4.00781C2.93555 3.50391 3.31641 3.09961 3.79688 2.79492C4.27734 2.47852 4.80469 2.29687 5.37891 2.25ZM5.625 12.375C5.78906 12.375 5.92383 12.4277 6.0293 12.5332C6.13477 12.6387 6.1875 12.7734 6.1875 12.9375C6.1875 13.0898 6.13477 13.2246 6.0293 13.3418C5.92383 13.4473 5.78906 13.5 5.625 13.5C5.47266 13.5 5.33789 13.4473 5.2207 13.3418C5.11523 13.2246 5.0625 13.0898 5.0625 12.9375C5.0625 12.7734 5.11523 12.6387 5.2207 12.5332C5.33789 12.4277 5.47266 12.375 5.625 12.375Z" fill="#5E81F4"/>
</svg>
