<svg width="16" height="12" viewBox="0 0 16 12" fill="none" xmlns="http://www.w3.org/2000/svg">
<path d="M7.875 0C7.16016 0 6.46875 0.158203 5.80078 0.474609C5.19141 0.767578 4.64648 1.18359 4.16602 1.72266L4.07812 1.70508C4.01953 1.69336 3.97266 1.6875 3.9375 1.6875C3.52734 1.6875 3.15234 1.79297 2.8125 2.00391C2.47266 2.20313 2.19727 2.47266 1.98633 2.8125C1.78711 3.15234 1.6875 3.52734 1.6875 3.9375C1.18359 4.24219 0.779297 4.63477 0.474609 5.11523C0.158203 5.61914 0 6.16992 0 6.76758C0 7.36523 0.152344 7.92188 0.457031 8.4375C0.761719 8.95312 1.17188 9.36328 1.6875 9.66797C2.20312 9.97266 2.76562 10.125 3.375 10.125H6.1875V9H3.375C2.96484 9 2.58398 8.90039 2.23242 8.70117C1.89258 8.50195 1.62305 8.23242 1.42383 7.89258C1.22461 7.54102 1.125 7.16016 1.125 6.75C1.125 6.29297 1.24805 5.87695 1.49414 5.50195C1.75195 5.12695 2.08594 4.85156 2.49609 4.67578L2.88281 4.51758L2.8125 3.9375C2.8125 3.62109 2.91797 3.35742 3.12891 3.14648C3.35156 2.92383 3.62109 2.8125 3.9375 2.8125C4.01953 2.8125 4.10742 2.82422 4.20117 2.84766L4.55273 2.93555L4.76367 2.6543C5.12695 2.18555 5.57812 1.81641 6.11719 1.54688C6.66797 1.26562 7.24805 1.125 7.85742 1.125C8.4668 1.125 9.03516 1.25391 9.5625 1.51172C10.1016 1.76953 10.5527 2.12695 10.916 2.58398C11.291 3.0293 11.5488 3.5332 11.6895 4.0957L11.7949 4.53516L12.2695 4.51758C12.4805 4.50586 12.5156 4.5 12.375 4.5C12.7852 4.5 13.1602 4.59961 13.5 4.79883C13.8516 4.99805 14.127 5.27344 14.3262 5.625C14.5254 5.96484 14.625 6.33984 14.625 6.75C14.625 7.16016 14.5254 7.54102 14.3262 7.89258C14.127 8.23242 13.8516 8.50195 13.5 8.70117C13.1602 8.90039 12.7852 9 12.375 9H9.5625V10.125H12.375C12.9844 10.125 13.5469 9.97266 14.0625 9.66797C14.5781 9.36328 14.9883 8.95312 15.293 8.4375C15.5977 7.92188 15.75 7.35938 15.75 6.75C15.75 6.16406 15.6094 5.625 15.3281 5.13281C15.0469 4.64062 14.666 4.24805 14.1855 3.95508C13.7051 3.65039 13.1777 3.47461 12.6035 3.42773C12.3691 2.77148 12.0176 2.18555 11.5488 1.66992C11.0918 1.14258 10.5527 0.738281 9.93164 0.457031C9.28711 0.152344 8.60156 0 7.875 0ZM7.875 4.5L5.625 6.75H7.3125V11.25H8.4375V6.75H10.125L7.875 4.5Z" fill="#5E81F4"/>
</svg>
